<?xml version="1.0" standalone="no"?><!DOCTYPE svg PUBLIC "-//W3C//DTD SVG 1.1//EN" "http://www.w3.org/Graphics/SVG/1.1/DTD/svg11.dtd"><svg t="1612257399631" class="icon" viewBox="0 0 1025 1024" version="1.1" xmlns="http://www.w3.org/2000/svg" p-id="5396" xmlns:xlink="http://www.w3.org/1999/xlink" width="200.1953125" height="200"><defs><style type="text/css"></style></defs><path d="M554.626529 889.738476V188.447789h356.425211v701.170273M195.552211 834.468485V349.079962h226.257761v485.268109" fill="#DA291F" opacity=".5" p-id="5397"></path><path d="M554.385701 191.337723h59.484478v59.484478h-59.484478zM554.385701 339.80809h59.484478v59.484478h-59.484478zM554.385701 488.398871h59.484478V547.883349h-59.484478zM554.385701 636.869238h59.484478v59.484478h-59.484478zM554.385701 785.339605h59.484478v59.484478h-59.484478zM770.889934 191.337723h59.484478v59.484478h-59.484478zM770.889934 339.80809h59.484478v59.484478h-59.484478zM770.889934 488.398871h59.484478V547.883349h-59.484478zM770.889934 636.869238h59.484478v59.484478h-59.484478zM770.889934 785.339605h59.484478v59.484478h-59.484478z" fill="#292828" p-id="5398"></path><path d="M165.930386 331.49953h45.155221v45.155221h-45.155221zM165.930386 444.327375h45.155221v45.155221h-45.155221zM165.930386 557.396049h45.155221v45.155221h-45.155221zM165.930386 670.223895h45.155221v45.155221h-45.155221zM165.930386 783.172154h45.155221v45.155221h-45.155221zM330.536218 331.49953H375.691439v45.155221h-45.155221zM330.536218 444.327375H375.691439v45.155221h-45.155221zM330.536218 557.396049H375.691439v45.155221h-45.155221zM330.536218 670.223895H375.691439v45.155221h-45.155221zM330.536218 783.172154H375.691439v45.155221h-45.155221z" fill="#292828" p-id="5399"></path><path d="M963.672625 889.618062V77.907808H421.087488v811.710254H115.476952V291.642521h305.490122v-52.620884H62.856068v650.596425H0.963311v52.620884h1024.60207v-52.620884h-61.892756zM473.708373 130.528692h437.343367v759.08937H473.708373V130.528692z" fill="#292828" p-id="5400"></path></svg>