<?xml version="1.0" standalone="no"?><!DOCTYPE svg PUBLIC "-//W3C//DTD SVG 1.1//EN" "http://www.w3.org/Graphics/SVG/1.1/DTD/svg11.dtd"><svg t="1612265810973" class="icon" viewBox="0 0 1024 1024" version="1.1" xmlns="http://www.w3.org/2000/svg" p-id="13540" xmlns:xlink="http://www.w3.org/1999/xlink" width="200" height="200"><defs><style type="text/css"></style></defs><path d="M835.82976 933.64224l-9.80992 7.80288-31.98976 21.52448-47.34976 1.2288-54.43584-21.9136-16.36352-20.04992a4056.63744 4056.63744 0 0 0-166.35904-3.3792c-254.07488 0-460.06272 22.48704-460.06272 50.21696s205.98784 50.19648 460.06272 50.19648c254.09536 0 460.10368-22.48704 460.10368-50.19648 0.02048-13.86496-51.0976-26.35776-133.79584-35.4304z" fill="#B7CED2" p-id="13541"></path><path d="M825.9584 184.32H198.90176c-33.21856 0-60.17024 27.72992-60.17024 61.91104v626.91328c0 34.22208 26.9312 61.87008 60.17024 61.87008H692.6336a96.74752 96.74752 0 0 1 68.608-164.84352 96.72704 96.72704 0 0 1 96.68608 96.74752c0 20.91008-6.7584 40.16128-18.08384 55.97184 20.97152-9.89184 39.26016-27.81184 46.2848-60.64128v-616.0384C886.12864 212.04992 859.17696 184.32 825.9584 184.32z m-606.72 111.55456c0-19.68128 18.28864-35.67616 40.83712-35.67616h132.97664c22.56896 0 40.8576 15.99488 40.8576 35.67616s-18.30912 35.67616-40.8576 35.67616h-132.97664c-22.54848 0-40.83712-15.99488-40.83712-35.67616z m172.6464 314.20416a62.73024 62.73024 0 1 1 0.04096-125.37856 62.73024 62.73024 0 0 1-0.04096 125.37856z m237.1584-278.528h-44.81024v-71.35232h44.81024v71.35232z m85.62688 0h-44.81024v-71.35232h44.81024v71.35232z m85.9136 0h-44.78976v-71.35232h44.78976v71.35232z" fill="#A2E7F6" p-id="13542"></path><path d="M207.83104 858.95168a9.216 9.216 0 0 1-9.07264-9.35936c0-55.56224 20.992-107.80672 59.12576-147.10784 38.15424-39.3216 88.86272-60.928 142.82752-60.928 48.08704 0 94.67904 17.65376 131.1744 49.84832a9.50272 9.50272 0 0 1 0.96256 13.23008 8.9088 8.9088 0 0 1-12.8 1.04448 180.49024 180.49024 0 0 0-119.33696-45.3632c-101.31456 0-183.78752 84.8896-183.78752 189.27616a9.216 9.216 0 0 1-9.09312 9.35936zM580.25984 504.07424h151.47008v37.888h-151.47008v-37.888zM580.25984 658.80064h151.47008v37.84704h-151.47008v-37.84704zM580.25984 583.51616h151.47008v37.888h-151.47008v-37.888zM731.11552 742.95296v-5.40672h-151.49056v37.888h90.15296a150.48704 150.48704 0 0 1 61.3376-32.48128zM389.26336 626.95424a77.47584 77.47584 0 0 1-77.39392-77.35296 77.47584 77.47584 0 0 1 77.39392-77.39392 77.47584 77.47584 0 0 1 77.37344 77.39392 77.45536 77.45536 0 0 1-77.37344 77.35296z m0-134.0416a56.77056 56.77056 0 0 0-56.68864 56.64768 56.79104 56.79104 0 0 0 56.68864 56.7296 56.75008 56.75008 0 0 0 56.66816-56.7296 56.77056 56.77056 0 0 0-56.66816-56.64768zM746.31168 905.23648a7.90528 7.90528 0 0 1-5.632-2.3552l-32.39936-32.39936a7.9872 7.9872 0 0 1 11.28448-11.28448l26.76736 26.76736 55.31648-55.31648a8.0896 8.0896 0 0 1 11.28448 0 7.9872 7.9872 0 0 1 0 11.28448l-60.96896 60.98944a8.04864 8.04864 0 0 1-5.65248 2.31424z" fill="#107792" p-id="13543"></path><path d="M760.60672 978.80064c-61.80864 0-112.06656-50.25792-112.06656-112.04608s50.25792-112.04608 112.06656-112.04608c61.78816 0 112.04608 50.25792 112.04608 112.04608s-50.2784 112.04608-112.04608 112.04608z m0-203.59168c-50.50368 0-91.58656 41.08288-91.58656 91.56608s41.08288 91.56608 91.58656 91.56608c50.4832 0 91.56608-41.08288 91.56608-91.56608s-41.08288-91.56608-91.56608-91.56608z" fill="#107792" p-id="13544"></path><path d="M897.92512 281.64096c0.04096-58.40896-36.27008-105.92256-80.91648-106.00448L204.32896 175.16544c-44.62592-0.08192-80.95744 47.43168-80.9984 105.84064l-0.04096 100.02432h-0.1024v20.48h0.08192l-0.22528 427.29472c-0.02048 56.03328 33.54624 101.72416 75.71456 105.32864v0.9216h425.71776v-0.16384H655.36a197.09952 197.09952 0 0 1-12.02176-32.3584H203.1616c-26.17344-0.79872-52.1216-39.58784-52.1216-73.68704l0.22528-427.33568h718.1312l-0.14336 269.2096c-0.43008 9.68704-0.73728 19.80416-0.73728 30.49472v98.05824c11.75552 27.15648 10.58816 25.3952 14.70464 44.35968 1.98656 9.03168 2.12992 17.3056 1.10592 26.112 5.55008-10.79296 13.59872-47.39072 13.59872-101.08928v-67.4816c0-5.09952-0.12288-9.99424-0.22528-14.88896l0.22528-404.64384zM151.28576 381.0304l0.04096-100.00384c0.02048-34.42688 26.54208-74.9568 52.98176-74.9568l612.70016 0.6144c26.43968 0 52.46976 40.50944 52.46976 74.9568l-0.04096 99.38944H151.28576z" fill="#107792" p-id="13545"></path><path d="M393.07264 341.79072H260.096c-28.16 0-51.07712-20.60288-51.07712-45.91616s22.91712-45.91616 51.07712-45.91616h132.97664c28.18048 0 51.0976 20.60288 51.0976 45.91616s-22.91712 45.91616-51.0976 45.91616zM260.096 270.4384c-16.87552 0-30.59712 11.40736-30.59712 25.43616 0 14.0288 13.7216 25.43616 30.59712 25.43616h132.97664c16.87552 0 30.6176-11.40736 30.6176-25.43616 0-14.0288-13.74208-25.43616-30.6176-25.43616H260.096zM622.44864 341.79072h-32.23552c-18.20672 0-20.15232-32.11264-20.15232-45.91616 0-13.80352 1.96608-45.91616 20.15232-45.91616h32.23552c18.20672 0 20.15232 32.11264 20.15232 45.91616 0 13.80352-1.96608 45.91616-20.15232 45.91616z m-28.4672-20.48h24.65792c1.49504-3.80928 3.4816-12.43136 3.4816-25.43616 0-12.98432-1.98656-21.62688-3.4816-25.43616h-24.63744c-1.49504 3.80928-3.4816 12.43136-3.4816 25.43616s1.98656 21.62688 3.46112 25.43616zM708.4032 341.79072h-32.27648c-18.20672 0-20.15232-32.11264-20.15232-45.91616 0-13.80352 1.96608-45.91616 20.15232-45.91616h32.27648c18.20672 0 20.15232 32.11264 20.15232 45.91616 0 13.80352-1.9456 45.91616-20.15232 45.91616z m-28.48768-20.48h24.6784c1.49504-3.80928 3.4816-12.43136 3.4816-25.43616 0-12.98432-1.98656-21.62688-3.4816-25.43616h-24.6784c-1.536 3.97312-3.4816 13.0048-3.4816 25.43616 0 13.0048 1.98656 21.62688 3.4816 25.43616zM794.35776 341.79072H762.0608c-18.18624 0-20.13184-32.11264-20.13184-45.91616 0-13.80352 1.96608-45.91616 20.13184-45.91616h32.27648c18.2272 0 20.1728 32.11264 20.1728 45.91616 0 13.80352-1.9456 45.91616-20.15232 45.91616z m-28.48768-20.48h24.69888c1.49504-3.80928 3.4816-12.43136 3.4816-25.43616s-1.98656-21.64736-3.4816-25.43616h-24.6784c-1.49504 3.80928-3.4816 12.45184-3.4816 25.43616 0 13.0048 1.96608 21.62688 3.46112 25.43616z" fill="#107792" p-id="13546"></path></svg>