<?xml version="1.0" standalone="no"?><!DOCTYPE svg PUBLIC "-//W3C//DTD SVG 1.1//EN" "http://www.w3.org/Graphics/SVG/1.1/DTD/svg11.dtd"><svg t="1612257959080" class="icon" viewBox="0 0 1024 1024" version="1.1" xmlns="http://www.w3.org/2000/svg" p-id="14719" xmlns:xlink="http://www.w3.org/1999/xlink" width="200" height="200"><defs><style type="text/css"></style></defs><path d="M128 560h48v224H128a48 48 0 0 1-48-48v-128a48 48 0 0 1 48-48z" fill="#6773BA" p-id="14720"></path><path d="M176 512m48 0l0 0q48 0 48 48l0 224q0 48-48 48l0 0q-48 0-48-48l0-224q0-48 48-48Z" fill="#9CA8DB" p-id="14721"></path><path d="M896 784h-48V560h48a48 48 0 0 1 48 48v128a48 48 0 0 1-48 48z" fill="#6773BA" p-id="14722"></path><path d="M848 832m-48 0l0 0q-48 0-48-48l0-224q0-48 48-48l0 0q48 0 48 48l0 224q0 48-48 48Z" fill="#9CA8DB" p-id="14723"></path><path d="M448 880m32 0l64 0q32 0 32 32l0 0q0 32-32 32l-64 0q-32 0-32-32l0 0q0-32 32-32Z" fill="#6773BA" p-id="14724"></path><path d="M876.8 400a112 112 0 0 1-101.28-68.16 288 288 0 0 0-528 3.04 104.32 104.32 0 0 1-96 65.12H147.2a368 368 0 0 1 729.6 0z" fill="#D9E2FF" p-id="14725"></path><path d="M176 800H128a64 64 0 0 1-64-64v-128a64 64 0 0 1 64-64h48a16 16 0 0 1 16 16v128a16 16 0 0 1-32 0v-112H128a32 32 0 0 0-32 32v128a32 32 0 0 0 32 32h32v-16a16 16 0 0 1 32 0v32a16 16 0 0 1-16 16z" fill="#383E6D" p-id="14726"></path><path d="M224 848a64 64 0 0 1-64-64v-32a16 16 0 0 1 32 0v32a32 32 0 0 0 64 0V560a32 32 0 0 0-32-32 32 32 0 0 0-32 32v128a16 16 0 0 1-32 0v-128a64 64 0 1 1 128 0v224a64 64 0 0 1-64 64zM896 800h-48a16 16 0 0 1-16-16V560a16 16 0 0 1 16-16h48a64 64 0 0 1 64 64v128a64 64 0 0 1-64 64z m-32-32h32a32 32 0 0 0 32-32v-128a32 32 0 0 0-32-32h-32z" fill="#383E6D" p-id="14727"></path><path d="M800 848a64 64 0 0 1-64-64v-128a16 16 0 0 1 32 0v128a32 32 0 0 0 32 32 32 32 0 0 0 32-32V560a32 32 0 0 0-64 0v32a16 16 0 0 1-32 0v-32a64 64 0 0 1 128 0v224a64 64 0 0 1-64 64zM496 960h-16a48 48 0 0 1-48-48 48 48 0 0 1 48-48h64a48 48 0 0 1 48 48 48 48 0 0 1-24.48 41.76 16 16 0 1 1-16-27.84 16 16 0 0 0 3.36-2.72 15.04 15.04 0 0 0 5.12-11.2 16 16 0 0 0-16-16h-64a14.88 14.88 0 0 0-11.04 4.64A16 16 0 0 0 464 912a16 16 0 0 0 16 16h16a16 16 0 0 1 0 32z" fill="#383E6D" p-id="14728"></path><path d="M800 928H576a16 16 0 0 1 0-32h224a80 80 0 0 0 80-80v-32a16 16 0 0 1 32 0v32a112 112 0 0 1-112 112zM880 576a16 16 0 0 1-16-16v-112a342.24 342.24 0 0 0-3.04-45.92 16 16 0 1 1 32-4.16A376.16 376.16 0 0 1 896 448v112a16 16 0 0 1-16 16zM144 576a16 16 0 0 1-16-16v-112a376.16 376.16 0 0 1 3.36-50.08 16 16 0 1 1 32 4.16A342.24 342.24 0 0 0 160 448v112a16 16 0 0 1-16 16zM544 97.44h-1.44c-4.96 0-9.92 0-15.04-0.96A16 16 0 0 1 528 64c5.76 0 11.36 0 16.96 0.96a16 16 0 0 1-1.44 32z" fill="#383E6D" p-id="14729"></path><path d="M151.84 416H147.2a16 16 0 0 1-16-18.08A384 384 0 0 1 462.08 67.2a16 16 0 0 1 4.16 32 352 352 0 0 0-300.16 283.52 87.2 87.2 0 0 0 60.64-42.88 16 16 0 1 1 27.52 16A118.56 118.56 0 0 1 151.84 416z" fill="#383E6D" p-id="14730"></path><path d="M876.8 416a128 128 0 0 1-116-77.76 272 272 0 0 0-476.96-38.08 16 16 0 0 1-26.88-17.28 304 304 0 0 1 470.08-49.92 307.68 307.68 0 0 1 64 92.48 97.12 97.12 0 0 0 67.52 56.48 353.76 353.76 0 0 0-96.96-182.72 349.92 349.92 0 0 0-160-91.68 16 16 0 1 1 8-31.04 384 384 0 0 1 283.04 321.44 16 16 0 0 1-16 18.08z" fill="#383E6D" p-id="14731"></path><path d="M480 512h-80a16 16 0 0 1-16-16v-16a16 16 0 0 1 4.64-11.36l70.08-70.08a17.92 17.92 0 0 0-12.64-30.56h-12.16A17.92 17.92 0 0 0 416 385.92V400a16 16 0 0 1-32 0v-14.08A49.92 49.92 0 0 1 433.92 336h12.16A49.92 49.92 0 0 1 496 385.92a49.44 49.44 0 0 1-14.56 35.36L422.56 480H480a16 16 0 0 1 0 32zM624 448h-32a64 64 0 0 1-64-64v-32a16 16 0 0 1 32 0v32a32 32 0 0 0 32 32h16v-64a16 16 0 0 1 32 0v80a16 16 0 0 1-16 16z" fill="#383E6D" p-id="14732"></path><path d="M624 512a16 16 0 0 1-16-16v-64a16 16 0 0 1 32 0v64a16 16 0 0 1-16 16z" fill="#383E6D" p-id="14733"></path><path d="M704 448a16 16 0 0 1-16-16 176 176 0 0 0-118.88-166.4 16 16 0 0 1 10.24-30.4A208 208 0 0 1 720 432a16 16 0 0 1-16 16zM512 640a208 208 0 0 1 0-416 16 16 0 0 1 0 32 176 176 0 0 0 0 352 16 16 0 0 1 0 32z" fill="#EDBF4F" p-id="14734"></path><path d="M496 688a16 16 0 0 1-11.36-4.64 16 16 0 0 1 0-22.72l36.8-36.64-36.8-36.64a16 16 0 0 1 22.72-22.72l48 48a16 16 0 0 1 0 22.72l-48 48A16 16 0 0 1 496 688z" fill="#EDBF4F" p-id="14735"></path></svg>